<svg xmlns="http://www.w3.org/2000/svg" viewBox="0 0 800 800">
  <defs>
    <linearGradient id="p6" x1="0" y1="0" x2="1" y2="1"><stop offset="0" stop-color="#FAF3EC"/><stop offset="1" stop-color="#E8D5C6"/></linearGradient>
    <radialGradient id="glow"><stop offset="0" stop-color="#F0B678" stop-opacity=".85"/><stop offset="1" stop-color="#F0B678" stop-opacity="0"/></radialGradient>
  </defs>
  <rect width="800" height="800" fill="url(#p6)"/>
  <rect x="0" y="580" width="800" height="220" fill="#F3E6DC"/>
  <ellipse cx="400" cy="600" rx="200" ry="24" fill="#D9C1B2" opacity=".42"/>
  <circle cx="400" cy="290" r="190" fill="url(#glow)"/>
  <g transform="translate(250 220)">
    <rect x="0" y="0" width="300" height="380" rx="26" fill="#E7C9A8"/>
    <rect x="0" y="0" width="300" height="82" rx="26" fill="#D9B894"/>
    <rect x="0" y="62" width="300" height="20" fill="#D9B894"/>
    <rect x="143" y="-52" width="8" height="52" fill="#8A6B4F"/>
    <ellipse cx="147" cy="-58" rx="12" ry="22" fill="#F0B678"/>
    <rect x="52" y="150" width="196" height="12" rx="6" fill="#F0DBBF" opacity=".65"/>
    <rect x="52" y="182" width="140" height="12" rx="6" fill="#F0DBBF" opacity=".45"/>
  </g>
  <g transform="translate(600 480) rotate(14)">
    <path d="M0 0 q10 70 4 140" fill="none" stroke="#8FA394" stroke-width="5" stroke-linecap="round"/>
    <circle cx="2" cy="14" r="11" fill="#C3B4C9"/><circle cx="6" cy="42" r="12" fill="#BBA9C4"/>
  </g>
</svg>
